<?xml version="1.0" encoding="UTF-8"?>
<svg version="1.1" xmlns="http://www.w3.org/2000/svg" width="260" height="255">
<path d="M0 0 C19.73794394 16.67757994 34.78870347 37.61925674 41.5625 62.8125 C41.75859863 63.51874512 41.95469727 64.22499023 42.15673828 64.95263672 C50.98122352 97.91998998 45.36737799 132.44572515 28.5625 161.8125 C9.75689256 192.04089712 -19.01047872 211.3703225 -53.47265625 219.53125 C-60.07297575 220.82282331 -66.72732493 221.43869949 -73.4375 221.8125 C-74.5821875 221.87630859 -74.5821875 221.87630859 -75.75 221.94140625 C-109.6766546 222.82491288 -140.75314129 209.45331056 -165.4375 186.8125 C-166.44876953 185.92498047 -166.44876953 185.92498047 -167.48046875 185.01953125 C-187.4493704 166.56845586 -201.29844225 135.99588137 -202.57592773 108.87353516 C-203.67534142 71.60099199 -194.84749071 39.03989513 -169.19921875 11.23046875 C-124.43374755 -35.63023603 -50.57894193 -40.05967481 0 0 Z " fill="#020202" transform="translate(209.4375,28.1875)"/>
<path d="M0 0 C19.73794394 16.67757994 34.78870347 37.61925674 41.5625 62.8125 C41.75859863 63.51874512 41.95469727 64.22499023 42.15673828 64.95263672 C50.98122352 97.91998998 45.36737799 132.44572515 28.5625 161.8125 C9.75689256 192.04089712 -19.01047872 211.3703225 -53.47265625 219.53125 C-60.07297575 220.82282331 -66.72732493 221.43869949 -73.4375 221.8125 C-74.5821875 221.87630859 -74.5821875 221.87630859 -75.75 221.94140625 C-109.6766546 222.82491288 -140.75314129 209.45331056 -165.4375 186.8125 C-166.44876953 185.92498047 -166.44876953 185.92498047 -167.48046875 185.01953125 C-187.4493704 166.56845586 -201.29844225 135.99588137 -202.57592773 108.87353516 C-203.67534142 71.60099199 -194.84749071 39.03989513 -169.19921875 11.23046875 C-124.43374755 -35.63023603 -50.57894193 -40.05967481 0 0 Z M-164.6328125 23.21875 C-185.26757751 48.14230931 -193.67744416 77.8921267 -191.4375 109.8125 C-188.56659713 133.33196513 -178.43175088 153.75559362 -163.4375 171.8125 C-162.99664062 172.37710938 -162.55578125 172.94171875 -162.1015625 173.5234375 C-149.24797062 189.82765807 -127.25368635 201.7249172 -107.4375 206.8125 C-105.98005371 207.20719482 -105.98005371 207.20719482 -104.49316406 207.60986328 C-96.23669247 209.70912357 -88.44155531 210.35506727 -79.9375 210.3125 C-78.63176025 210.30822998 -77.32602051 210.30395996 -75.98071289 210.29956055 C-64.58913193 210.10164678 -54.24938909 208.31616875 -43.4375 204.8125 C-42.24640625 204.43996094 -41.0553125 204.06742188 -39.828125 203.68359375 C-26.79682453 199.12263859 -14.82380799 191.84238717 -4.4375 182.8125 C-3.8290625 182.33554688 -3.220625 181.85859375 -2.59375 181.3671875 C2.9788805 176.93441324 7.23080828 171.42594008 11.5625 165.8125 C12.17222656 165.03003906 12.78195313 164.24757812 13.41015625 163.44140625 C30.77183929 139.98929225 37.43374584 109.81015861 34.2578125 81.05371094 C32.6221161 70.10873223 29.28372916 59.80474533 24.5625 49.8125 C24.26327637 49.17828125 23.96405273 48.5440625 23.65576172 47.890625 C19.32078807 38.89223653 14.24293471 31.29367175 7.5625 23.8125 C6.8303125 22.94882812 6.098125 22.08515625 5.34375 21.1953125 C-10.99542306 2.26718596 -36.55895266 -12.6185319 -61.73632812 -15.00878906 C-102.15295159 -17.68277391 -136.68635445 -7.41295491 -164.6328125 23.21875 Z " fill="#E6E1C8" transform="translate(209.4375,28.1875)"/>
<path d="M0 0 C1.18395539 0.9370152 2.36246269 1.8809594 3.53515625 2.83203125 C4.39391357 3.52353271 4.39391357 3.52353271 5.27001953 4.22900391 C23.54368472 19.26098886 36.31528657 40.09901735 42.53515625 62.83203125 C42.85355469 63.9509375 43.17195312 65.06984375 43.5 66.22265625 C50.18234206 93.69108537 44.52629302 124.74385926 30.09765625 148.89453125 C26.3634739 154.91177237 22.1372656 160.44973598 17.53515625 165.83203125 C17.05820313 166.44175781 16.58125 167.05148438 16.08984375 167.6796875 C-0.14214609 188.03924047 -28.23012226 200.26720151 -53.46484375 203.83203125 C-69.33379295 204.71941946 -85.28200714 204.94889884 -100.46484375 199.83203125 C-101.57988281 199.46980469 -102.69492188 199.10757813 -103.84375 198.734375 C-117.36906467 193.93296967 -129.35520875 186.85450109 -140.46484375 177.83203125 C-141.191875 177.25839844 -141.91890625 176.68476563 -142.66796875 176.09375 C-148.41280104 171.35539423 -152.9395781 165.71815577 -157.46484375 159.83203125 C-158.07328125 159.05085937 -158.68171875 158.2696875 -159.30859375 157.46484375 C-168.16307588 145.51129288 -173.62154965 132.09880482 -177.46484375 117.83203125 C-177.78453125 116.775 -178.10421875 115.71796875 -178.43359375 114.62890625 C-185.94430276 86.39420388 -178.43794916 57.08303701 -164.52734375 32.265625 C-161.66229268 27.36353339 -158.22451326 23.07548176 -154.46484375 18.83203125 C-153.68109375 17.91679688 -152.89734375 17.0015625 -152.08984375 16.05859375 C-146.69643599 9.90673802 -141.10964785 4.60412232 -134.46484375 -0.16796875 C-133.45035156 -0.89757812 -132.43585938 -1.6271875 -131.390625 -2.37890625 C-92.64039098 -29.18702791 -37.71759096 -28.54987978 0 0 Z M-146.90283203 24.03173828 C-156.28014452 34.83953795 -163.10958195 47.92619255 -166.87890625 61.6953125 C-167.36664952 63.47394961 -167.96514334 65.22175234 -168.58984375 66.95703125 C-173.66834866 83.64354737 -172.19710793 105.52147692 -166.46484375 121.83203125 C-166.11421875 122.91613281 -165.76359375 124.00023437 -165.40234375 125.1171875 C-156.12012393 151.64241984 -137.41164078 171.5207637 -112.546875 184.3359375 C-106.66190707 187.1165641 -100.74707335 189.16493284 -94.46484375 190.83203125 C-93.15966797 191.25162109 -93.15966797 191.25162109 -91.828125 191.6796875 C-67.37427225 198.69915124 -39.68363794 193.15976332 -17.46484375 181.83203125 C-9.03503535 176.72393429 -1.57873361 170.64373818 5.53515625 163.83203125 C6.17066406 163.24808594 6.80617187 162.66414062 7.4609375 162.0625 C25.55766953 144.92878697 34.98034092 118.4396509 35.96923828 94.01855469 C36.4130956 74.24553321 31.48446499 55.86556179 21.53515625 38.83203125 C21.01566406 37.878125 20.49617187 36.92421875 19.9609375 35.94140625 C6.95767061 13.53779277 -15.89457357 -1.87800121 -40.53710938 -8.64648438 C-42.51013858 -9.1647455 -44.48735207 -9.66700419 -46.46484375 -10.16796875 C-47.31949219 -10.41417969 -48.17414063 -10.66039062 -49.0546875 -10.9140625 C-85.12754334 -20.10661803 -122.92570507 -1.96694711 -146.90283203 24.03173828 Z " fill="#0A0A08" transform="translate(198.46484375,34.16796875)"/>
<path d="M0 0 C3.00992552 1.11110198 5.87169731 2.4310716 8.78515625 3.7734375 C12.30361361 5.115838 15.45036038 5.58967897 19.1875 6 C27.23843408 6.96753232 32.89299501 9.39392377 38.375 15.4375 C42.45270723 20.7385194 44.13460368 24.21926994 43.75 31 C43.52875576 35.2943929 43.52875576 35.2943929 45.4765625 38.93359375 C46.721567 39.91986274 47.99936514 40.86635687 49.30859375 41.765625 C51.65236048 43.47608756 52.32479754 45.22416765 53 48 C53 48.99 53 49.98 53 51 C53.886875 50.87625 54.77375 50.7525 55.6875 50.625 C59 51 59 51 61.67578125 53.1796875 C65.56399294 58.15583448 64.64050512 64.50298618 64.5 70.5 C64.50257813 71.71042969 64.50515625 72.92085938 64.5078125 74.16796875 C64.41675185 82.44538173 63.23673572 87.70266761 57.625 94 C54.54718916 97.81184941 53.01383519 101.34821503 51.5 106 C47.59981183 117.76387926 40.13528015 124.77168584 29.625 131 C27 132 27 132 24 131 C24 130.34 24 129.68 24 129 C24.6290625 128.72027344 25.258125 128.44054687 25.90625 128.15234375 C35.29225036 123.75618997 42.19938462 118.85223902 46 109 C46.35191406 107.99453125 46.70382813 106.9890625 47.06640625 105.953125 C49.55436235 98.95728804 52.17363976 93.90842604 57.328125 88.51171875 C61.16632579 82.7454498 60.1825418 74.40585606 60.1875 67.6875 C60.19974609 66.79482422 60.21199219 65.90214844 60.22460938 64.98242188 C60.22654297 64.12583984 60.22847656 63.26925781 60.23046875 62.38671875 C60.23457764 61.61545654 60.23868652 60.84419434 60.24291992 60.04956055 C60.12007982 57.68946392 60.12007982 57.68946392 58 55 C55.94074861 54.27617533 55.94074861 54.27617533 54 54 C48.43259792 66.65639076 48.43259792 66.65639076 45 80 C48.465 79.505 48.465 79.505 52 79 C51.67 79.99 51.34 80.98 51 82 C49.02 82.33 47.04 82.66 45 83 C45.061875 83.99 45.12375 84.98 45.1875 86 C45.14468913 93.07806318 42.26300669 98.32172769 37.5625 103.45703125 C35.50534824 105.48846861 33.32800997 107.28822797 31 109 C32.65 109 34.3 109 36 109 C36 109.99 36 110.98 36 112 C35.32453125 112.01675781 34.6490625 112.03351563 33.953125 112.05078125 C30.97873745 112.33876386 28.72234252 112.74617663 26 114 C23.8622438 117.42513425 23.01832804 121.1179474 22 125 C20.06119601 130.66509067 17.4848304 134.77324677 13.5625 139.3125 C9.53648827 144.01281911 7.17925433 148.47775291 5.0703125 154.2734375 C3.54764172 158.15235796 1.96876221 161.19269816 -1.25 163.875 C-4.83926112 165.34333409 -7.26551623 164.80547689 -11 164 C-10.43088725 158.08415664 -9.19020129 152.84925066 -7.3125 147.22265625 C-6.77340042 145.55795472 -6.23433909 143.89324079 -5.6953125 142.22851562 C-4.84848678 139.64314591 -3.99876513 137.05875188 -3.14746094 134.47485352 C-2.32024427 131.95558097 -1.5035586 129.43306126 -0.6875 126.91015625 C-0.43331299 126.15050064 -0.17912598 125.39084503 0.08276367 124.60816956 C1.72123874 119.53058908 3.04420024 114.3726232 3 109 C1.70334325 106.31016276 1.70334325 106.31016276 -0.4375 104.4375 C-1.09621094 103.77621094 -1.75492187 103.11492187 -2.43359375 102.43359375 C-2.95050781 101.96050781 -3.46742188 101.48742187 -4 101 C-3.67 100.34 -3.34 99.68 -3 99 C-2.34 99 -1.68 99 -1 99 C0.68732277 100.98260426 2.35366057 102.9832342 4 105 C4.66 105.33 5.32 105.66 6 106 C6.10183594 104.83597656 6.20367187 103.67195313 6.30859375 102.47265625 C7.09647754 95.38170211 8.63101644 88.42000453 10.0625 81.4375 C10.34736563 80.03327619 10.63187366 78.62897979 10.91601562 77.22460938 C11.60655781 73.81555975 12.30192898 70.40751693 13 67 C12.39414063 66.71898438 11.78828125 66.43796875 11.1640625 66.1484375 C6.90152264 63.88636761 3.81690608 60.45967857 2 56 C5 56 5 56 6.75390625 57.49609375 C7.35074219 58.13675781 7.94757813 58.77742188 8.5625 59.4375 C11.00289429 62.0896163 11.00289429 62.0896163 14 64 C14.33 58.72 14.66 53.44 15 48 C16.65 47.67 18.3 47.34 20 47 C22.76205121 51.7750017 22.34028939 56.3618978 22.3125 61.75 C22.31121094 62.77101807 22.30992187 63.79203613 22.30859375 64.84399414 C22.19984753 73.51038808 21.05188994 81.58480851 19 90 C20.46300982 89.06981474 21.92025579 88.13055973 23.375 87.1875 C24.18710938 86.66542969 24.99921875 86.14335938 25.8359375 85.60546875 C28.23350241 84.01562803 28.23350241 84.01562803 30 81 C31.485 81.495 31.485 81.495 33 82 C31.57876845 85.30163021 29.87676578 87.3170382 27.1875 89.6875 C26.52105469 90.28949219 25.85460937 90.89148438 25.16796875 91.51171875 C22.75216718 93.17013389 20.88196185 93.62277986 18 94 C17.78085938 95.18851562 17.56171875 96.37703125 17.3359375 97.6015625 C14.87220253 110.59842677 11.6400137 123.28548322 8 136 C7.01 136 6.02 136 5 136 C6.2847162 128.40470593 7.9393 120.96921871 9.8125 113.5 C14.51844965 94.16126021 19.17720694 75.0125179 18 55 C17.94054199 55.58040039 17.88108398 56.16080078 17.81982422 56.75878906 C13.97870883 93.07607529 3.8295796 127.58517555 -8 162 C-2.6870568 160.36252502 -2.6870568 160.36252502 0.56640625 156.14453125 C0.89511719 155.04496094 1.22382813 153.94539062 1.5625 152.8125 C3.84466509 146.08533362 6.8698111 141.52742099 11.5390625 136.265625 C15.09732953 131.99570456 16.88634166 127.78612215 18.5 122.5 C21.6838061 112.20241654 26.33683073 107.35524224 34.7890625 100.8828125 C38.60303109 97.63487459 40.05628459 93.7842268 41 89 C41.05115266 86.60435043 41.09135564 84.20845942 41.125 81.8125 C41.3847844 74.41936176 43.3846789 68.49282017 46.56103516 61.84887695 C49.19895793 56.2280933 49.99866428 51.92362587 47.921875 45.84375 C45.57077036 42.36487972 42.81013651 40.55722698 39.25 38.5 C37.98445198 37.73201371 36.72139753 36.95990248 35.4609375 36.18359375 C34.85991211 35.81347168 34.25888672 35.44334961 33.63964844 35.06201172 C31.56627506 33.71907333 29.71621708 32.20673097 27.875 30.5625 C23.29660896 26.48176016 19.94114104 25.40810009 13.8671875 25.5703125 C8.24009885 26.41360916 3.52517458 28.57535881 -1 32 C-5.4531953 38.04663722 -6.03716558 45.73984091 -5 53 C-4.3841682 54.97490888 -3.71516019 56.93385091 -3 58.875 C0.57708265 68.92182421 -0.00950283 76.79642047 -4.5 86.3125 C-4.99947144 87.28074707 -4.99947144 87.28074707 -5.5090332 88.26855469 C-8.70299613 94.61585522 -8.49484744 99.83590759 -7.1875 106.8125 C-6.55601496 112.2216679 -8.42915607 115.64741689 -10.84765625 120.390625 C-12.79849079 124.80810797 -12.53514532 128.57732663 -11.49609375 133.28125 C-9.65192428 143.38787953 -10.68192832 152.72771215 -15 162 C-18.5085041 160.83049863 -18.68323765 160.4077456 -20.3125 157.25 C-36.20999611 123.4976584 -37.96863019 81.70090694 -40 45 C-43.73742999 71.7045401 -39.77671239 100.09631412 -33 126 C-32.76909668 126.88929199 -32.53819336 127.77858398 -32.30029297 128.69482422 C-29.60850126 138.83483132 -26.37826897 148.1404238 -21.3203125 157.34765625 C-20 160 -20 160 -20 163 C-25.06307412 161.087766 -26.21789786 157.39199724 -28.42578125 152.71484375 C-36.62865157 133.87316083 -41.20786418 113.40894967 -43 93 C-43.91007812 92.73445313 -44.82015625 92.46890625 -45.7578125 92.1953125 C-48.8279713 91.06342263 -50.50414805 90.0561838 -52.875 87.875 C-53.47054687 87.33617188 -54.06609375 86.79734375 -54.6796875 86.2421875 C-55.11539063 85.83226563 -55.55109375 85.42234375 -56 85 C-55.505 83.515 -55.505 83.515 -55 82 C-51.29896173 83.23367942 -49.73190399 85.26809601 -47 88 C-45.515 88.495 -45.515 88.495 -44 89 C-44.10828125 87.77990234 -44.10828125 87.77990234 -44.21875 86.53515625 C-44.99102547 76.99969939 -45.10417046 67.56053368 -45 58 C-46.38058594 57.81050781 -46.38058594 57.81050781 -47.7890625 57.6171875 C-51.66511369 56.87215576 -53.94714588 55.4713581 -57 53 C-57 52.01 -57 51.02 -57 50 C-56.34 50.268125 -55.68 50.53625 -55 50.8125 C-51.35060933 52.25705047 -47.67754567 53.62871178 -44 55 C-44.03480469 54.24976563 -44.06960937 53.49953125 -44.10546875 52.7265625 C-44.28227932 46.04143891 -44.36970986 38.99758061 -41 33 C-38.953125 32.16796875 -38.953125 32.16796875 -37 32 C-34.96876925 34.03123075 -35.74330382 38.17768866 -35.68359375 40.97265625 C-35.66281265 41.77029892 -35.64203156 42.56794159 -35.62062073 43.38975525 C-35.55503842 45.94724611 -35.49620033 48.5048428 -35.4375 51.0625 C-35.39432301 52.79232882 -35.35070899 54.52214679 -35.30664062 56.25195312 C-35.19934828 60.5011926 -35.09810574 64.7505389 -35 69 C-30.49639365 65.43520238 -27.1002362 62.15919043 -24.1875 57.125 C-23.1746808 55.38675195 -22.12482957 53.66795308 -21 52 C-20.34 52 -19.68 52 -19 52 C-19.42308804 60.46176088 -26.03720909 66.57928099 -32 72 C-32.66 72 -33.32 72 -34 72 C-33.52697632 76.29236726 -33.04554646 80.58375004 -32.5625 84.875 C-32.42779297 86.09832031 -32.29308594 87.32164063 -32.15429688 88.58203125 C-32.02216797 89.74863281 -31.89003906 90.91523438 -31.75390625 92.1171875 C-31.63345947 93.19597168 -31.5130127 94.27475586 -31.38891602 95.38623047 C-31.14211492 97.97469229 -31.14211492 97.97469229 -30 100 C-25.34430104 93.09910466 -25.34430104 93.09910466 -21 86 C-20.01 86.495 -20.01 86.495 -19 87 C-19.56181775 90.87791279 -20.65374504 93.40915326 -22.875 96.625 C-23.38804688 97.38039063 -23.90109375 98.13578125 -24.4296875 98.9140625 C-26 101 -26 101 -27.60473633 102.29882812 C-29.2279309 103.94743884 -29.2279309 103.94743884 -29.19067383 106.42138672 C-28.35875098 114.52114664 -26.7232693 122.24653011 -24.6875 130.125 C-24.39166016 131.32253906 -24.09582031 132.52007812 -23.79101562 133.75390625 C-22.01773589 140.74744576 -19.89854357 147.39021934 -17 154 C-16.67 154 -16.34 154 -16 154 C-15.18756475 150.44075986 -14.86475078 147.14872305 -14.875 143.5 C-14.87242187 142.5821875 -14.86984375 141.664375 -14.8671875 140.71875 C-14.99799141 138.04111705 -15.45451652 135.61997368 -16 133 C-16.68373353 126.72918679 -16.31407953 122.04847542 -13.4375 116.375 C-10.73163114 111.02406833 -10.8629503 107.74783841 -12 102 C-13.09098416 95.44125995 -11.26031321 90.96305225 -8.5 85.125 C-4.27651575 76.08065485 -3.54534906 69.67829465 -7 60.125 C-7.36351562 59.135 -7.72703125 58.145 -8.1015625 57.125 C-10.29765307 49.48642409 -9.50594862 42.39707724 -7 35 C-6.78470605 32.88020178 -6.78470605 32.88020178 -7.0625 30.9375 C-7.11535156 30.30714844 -7.16820312 29.67679688 -7.22265625 29.02734375 C-9.44635395 23.22785075 -15.21263672 20.5108732 -20.4375 17.875 C-21.08009766 17.54113281 -21.72269531 17.20726563 -22.38476562 16.86328125 C-23.65278846 16.20674151 -24.92447359 15.55722035 -26.19995117 14.9152832 C-27.86301475 14.06965383 -29.50311679 13.17926832 -31.140625 12.28515625 C-37.14820487 9.58502814 -43.78778275 10.21348267 -49.875 12.5 C-54.57210921 14.92431443 -57.26141164 17.99645697 -59 23 C-59.16448 24.93331407 -59.26469912 26.87279074 -59.3125 28.8125 C-59.5423928 35.33160299 -62.25972842 38.44935424 -66.24609375 43.3984375 C-68.5229987 46.77576199 -68.79413158 49.03975047 -68.4140625 53.0234375 C-68.00242767 55.18756565 -68.00242767 55.18756565 -67 57.9375 C-65.05231466 63.90228636 -65.75785802 69.94455785 -67 76 C-67.47555963 81.77156464 -67.33253836 86.05494308 -64 91 C-62.89563707 92.14526526 -61.76852995 93.26884031 -60.625 94.375 C-54.3587573 100.44294388 -51.5882107 106.07610012 -50.06640625 114.6796875 C-49.07678544 117.76092445 -47.9607368 119.81809601 -46.25390625 122.53125 C-42.48699356 128.58714248 -39.96410389 134.99864937 -37.375 141.625 C-33.21594584 154.39737071 -33.21594584 154.39737071 -25.625 164.9375 C-19.93284555 167.24146728 -14.16247856 167.12901459 -8.125 167.0625 C-6.949375 167.05573242 -6.949375 167.05573242 -5.75 167.04882812 C-3.83329986 167.03714093 -1.91663952 167.01920908 0 167 C0 167.99 0 168.98 0 170 C-8.17879383 172.72626461 -19.50845614 172.17331675 -27.23828125 168.36328125 C-31.6604667 164.94123531 -33.9520769 160.42934751 -36.25 155.4375 C-36.54447021 154.7990918 -36.83894043 154.16068359 -37.14233398 153.50292969 C-40.02692454 147.14579693 -42.54371516 140.64720408 -45.07788086 134.14453125 C-47.25604725 128.6323933 -49.77962882 123.55071923 -52.78125 118.43359375 C-54.10365513 115.79302196 -54.69798567 113.38255735 -55.3125 110.5 C-56.95270903 103.60321746 -61.36399349 99.15826027 -66 94 C-68.64567278 90.91802329 -69.90843637 89.35404603 -70.9375 85.375 C-72.21112953 81.32935327 -73.38038829 80.9050588 -77 79 C-77 78.01 -77 77.02 -77 76 C-75.35 76.66 -73.7 77.32 -72 78 C-69.33057523 68.04354978 -69.33057523 68.04354978 -71.25 58.1875 C-72.99229506 56.00963118 -74.67389718 54.5239984 -77 53 C-76.67 52.01 -76.34 51.02 -76 50 C-75.34 50 -74.68 50 -74 50 C-74 50.66 -74 51.32 -74 52 C-73.34 52 -72.68 52 -72 52 C-72.165 51.071875 -72.33 50.14375 -72.5 49.1875 C-72.55871841 45.01010432 -70.63458636 42.97602868 -68.0625 39.8125 C-64.008934 34.65147989 -63.33390313 31.16794836 -63.17578125 24.7265625 C-62.85336311 19.72549896 -60.8853828 16.69999997 -57.1328125 13.31640625 C-50.36518466 7.99168774 -44.91911612 6.50382672 -36.30859375 6.6015625 C-31.40105517 7.19255298 -27.99155313 9.2141334 -24 12 C-23.34 12.33 -22.68 12.66 -22 13 C-21.7525 11.9790625 -21.7525 11.9790625 -21.5 10.9375 C-16.99114722 2.1076633 -9.45141083 -1.17187304 0 0 Z " fill="#D6D0B7" transform="translate(143,40)"/>
<path d="M0 0 C1.22525391 -0.020625 2.45050781 -0.04125 3.71289062 -0.0625 C12.44252647 -0.09931449 20.36779256 1.06985027 28.8125 3.25 C29.55363037 3.43820313 30.29476074 3.62640625 31.05834961 3.8203125 C45.6232369 7.77797326 58.49593226 15.37045674 69.8125 25.25 C70.53308594 25.81589844 71.25367188 26.38179687 71.99609375 26.96484375 C91.55954186 42.90155638 103.45673942 68.64108909 106.8125 93.25 C108.32237317 113.12971935 106.03922291 132.00913248 97.8125 150.25 C97.29816406 151.39984375 96.78382813 152.5496875 96.25390625 153.734375 C84.87870141 177.79831872 63.972934 197.39869334 38.94140625 206.7578125 C35.26596374 208.04514318 31.56240801 209.20077801 27.8125 210.25 C26.96316895 210.50966553 26.11383789 210.76933105 25.23876953 211.03686523 C16.85148081 213.41658359 8.71567091 213.76526221 0.0625 213.6875 C-0.6437149 213.68479095 -1.34992981 213.68208191 -2.07754517 213.67929077 C-12.62413656 213.61788217 -22.20664773 212.91766258 -32.1875 209.25 C-33.27804688 208.88777344 -34.36859375 208.52554688 -35.4921875 208.15234375 C-50.0007836 203.02040628 -61.96735448 195.68709174 -73.1875 185.25 C-74.14527344 184.38503906 -75.10304687 183.52007812 -76.08984375 182.62890625 C-95.92397603 163.90748827 -106.94110567 136.52248116 -107.72583008 109.42675781 C-107.9217756 82.15272482 -99.3602232 56.78584288 -81.1875 36.25 C-80.64867188 35.56808594 -80.10984375 34.88617188 -79.5546875 34.18359375 C-65.42073785 16.60493778 -41.30218708 3.83268806 -19.2421875 0.6875 C-12.84067865 0.03134368 -6.42943291 0.0266367 0 0 Z M-79.62548828 39.44970703 C-89.00280077 50.2575067 -95.8322382 63.3441613 -99.6015625 77.11328125 C-100.08930577 78.89191836 -100.68779959 80.63972109 -101.3125 82.375 C-106.39100491 99.06151612 -104.91976418 120.93944567 -99.1875 137.25 C-98.836875 138.33410156 -98.48625 139.41820312 -98.125 140.53515625 C-88.84278018 167.06038859 -70.13429703 186.93873245 -45.26953125 199.75390625 C-39.38456332 202.53453285 -33.4697296 204.58290159 -27.1875 206.25 C-25.88232422 206.66958984 -25.88232422 206.66958984 -24.55078125 207.09765625 C-0.0969285 214.11711999 27.59370581 208.57773207 49.8125 197.25 C58.2423084 192.14190304 65.69861014 186.06170693 72.8125 179.25 C73.44800781 178.66605469 74.08351562 178.08210937 74.73828125 177.48046875 C92.83501328 160.34675572 102.25768467 133.85761965 103.24658203 109.43652344 C103.69043935 89.66350196 98.76180874 71.28353054 88.8125 54.25 C88.29300781 53.29609375 87.77351562 52.3421875 87.23828125 51.359375 C74.23501436 28.95576152 51.38277018 13.53996754 26.74023438 6.77148438 C24.76720517 6.25322325 22.78999168 5.75096456 20.8125 5.25 C19.95785156 5.00378906 19.10320312 4.75757813 18.22265625 4.50390625 C-17.85019959 -4.68864928 -55.64836132 13.45102164 -79.62548828 39.44970703 Z " fill="#D9D4BA" transform="translate(131.1875,18.75)"/>
<path d="M0 0 C1.4136936 0.79822623 2.7988687 1.64843871 4.15625 2.5390625 C6.21372555 3.86081537 8.2109752 4.97049218 10.390625 6.0625 C11.05529785 6.39830078 11.7199707 6.73410156 12.40478516 7.08007812 C13.72090722 7.74147151 15.0407398 8.39555003 16.36474609 9.04101562 C20.94714531 11.40131776 23.71631864 13.9130379 26.6796875 18.16015625 C26.6796875 19.15015625 26.6796875 20.14015625 26.6796875 21.16015625 C28.00419922 20.4021875 28.00419922 20.4021875 29.35546875 19.62890625 C36.95427326 15.455409 42.78214323 13.01618627 51.6796875 14.16015625 C51.0196875 14.49015625 50.3596875 14.82015625 49.6796875 15.16015625 C49.6796875 15.82015625 49.6796875 16.48015625 49.6796875 17.16015625 C49.00164062 17.23492187 48.32359375 17.3096875 47.625 17.38671875 C40.39557179 18.40805071 34.22001751 20.21419114 28.6796875 25.16015625 C24.96333811 30.94865197 24.82284895 38.51289299 25.6796875 45.16015625 C26.2923476 47.13605136 26.96144853 49.09514422 27.6796875 51.03515625 C31.25677015 61.08198046 30.67018467 68.95657672 26.1796875 78.47265625 C25.68021606 79.44090332 25.68021606 79.44090332 25.1706543 80.42871094 C21.97669137 86.77601147 22.18484006 91.99606384 23.4921875 98.97265625 C24.12367254 104.38182415 22.25053143 107.80757314 19.83203125 112.55078125 C17.88119671 116.96826422 18.14454218 120.73748288 19.18359375 125.44140625 C21.02776322 135.54803578 19.99775918 144.8878684 15.6796875 154.16015625 C12.1711834 152.99065488 11.99644985 152.56790185 10.3671875 149.41015625 C-5.53030861 115.65781465 -7.28894269 73.86106319 -9.3203125 37.16015625 C-13.05774249 63.86469635 -9.09702489 92.25647037 -2.3203125 118.16015625 C-2.08940918 119.04944824 -1.85850586 119.93874023 -1.62060547 120.85498047 C1.07118624 130.99498757 4.30141853 140.30058005 9.359375 149.5078125 C10.6796875 152.16015625 10.6796875 152.16015625 10.6796875 155.16015625 C5.61661338 153.24792225 4.46178964 149.55215349 2.25390625 144.875 C-5.94896407 126.03331708 -10.52817668 105.56910592 -12.3203125 85.16015625 C-13.23039062 84.89460938 -14.14046875 84.6290625 -15.078125 84.35546875 C-18.1482838 83.22357888 -19.82446055 82.21634005 -22.1953125 80.03515625 C-22.79085937 79.49632813 -23.38640625 78.9575 -24 78.40234375 C-24.43570313 77.99242188 -24.87140625 77.5825 -25.3203125 77.16015625 C-24.8253125 75.67515625 -24.8253125 75.67515625 -24.3203125 74.16015625 C-20.61927423 75.39383567 -19.05221649 77.42825226 -16.3203125 80.16015625 C-14.8353125 80.65515625 -14.8353125 80.65515625 -13.3203125 81.16015625 C-13.42859375 79.94005859 -13.42859375 79.94005859 -13.5390625 78.6953125 C-14.31133797 69.15985564 -14.42448296 59.72068993 -14.3203125 50.16015625 C-15.70089844 49.97066406 -15.70089844 49.97066406 -17.109375 49.77734375 C-20.98542619 49.03231201 -23.26745838 47.63151435 -26.3203125 45.16015625 C-26.3203125 44.17015625 -26.3203125 43.18015625 -26.3203125 42.16015625 C-25.6603125 42.42828125 -25.0003125 42.69640625 -24.3203125 42.97265625 C-20.67092183 44.41720672 -16.99785817 45.78886803 -13.3203125 47.16015625 C-13.35511719 46.40992188 -13.38992187 45.6596875 -13.42578125 44.88671875 C-13.60259182 38.20159516 -13.69002236 31.15773686 -10.3203125 25.16015625 C-8.2734375 24.328125 -8.2734375 24.328125 -6.3203125 24.16015625 C-4.28908175 26.191387 -5.06361632 30.33784491 -5.00390625 33.1328125 C-4.98312515 33.93045517 -4.96234406 34.72809784 -4.94093323 35.5499115 C-4.87535092 38.10740236 -4.81651283 40.66499905 -4.7578125 43.22265625 C-4.71463551 44.95248507 -4.67102149 46.68230304 -4.62695312 48.41210938 C-4.51966078 52.66134885 -4.41841824 56.91069515 -4.3203125 61.16015625 C0.18329385 57.59535863 3.5794513 54.31934668 6.4921875 49.28515625 C7.5050067 47.5469082 8.55485793 45.82810933 9.6796875 44.16015625 C10.3396875 44.16015625 10.9996875 44.16015625 11.6796875 44.16015625 C11.25659946 52.62191713 4.64247841 58.73943724 -1.3203125 64.16015625 C-1.9803125 64.16015625 -2.6403125 64.16015625 -3.3203125 64.16015625 C-2.84728882 68.45252351 -2.36585896 72.74390629 -1.8828125 77.03515625 C-1.74810547 78.25847656 -1.61339844 79.48179688 -1.47460938 80.7421875 C-1.34248047 81.90878906 -1.21035156 83.07539063 -1.07421875 84.27734375 C-0.95377197 85.35612793 -0.8333252 86.43491211 -0.70922852 87.54638672 C-0.46242742 90.13484854 -0.46242742 90.13484854 0.6796875 92.16015625 C5.33538646 85.25926091 5.33538646 85.25926091 9.6796875 78.16015625 C10.6696875 78.65515625 10.6696875 78.65515625 11.6796875 79.16015625 C11.11786975 83.03806904 10.02594246 85.56930951 7.8046875 88.78515625 C7.29164062 89.54054688 6.77859375 90.2959375 6.25 91.07421875 C4.6796875 93.16015625 4.6796875 93.16015625 3.07495117 94.45898438 C1.4517566 96.10759509 1.4517566 96.10759509 1.48901367 98.58154297 C2.32093652 106.68130289 3.9564182 114.40668636 5.9921875 122.28515625 C6.28802734 123.48269531 6.58386719 124.68023437 6.88867188 125.9140625 C8.66195161 132.90760201 10.78114393 139.55037559 13.6796875 146.16015625 C14.0096875 146.16015625 14.3396875 146.16015625 14.6796875 146.16015625 C15.49212275 142.60091611 15.81493672 139.3088793 15.8046875 135.66015625 C15.80726563 134.74234375 15.80984375 133.82453125 15.8125 132.87890625 C15.68169609 130.2012733 15.22517098 127.78012993 14.6796875 125.16015625 C13.99595397 118.88934304 14.36560797 114.20863167 17.2421875 108.53515625 C19.94805636 103.18422458 19.8167372 99.90799466 18.6796875 94.16015625 C17.58870334 87.6014162 19.41937429 83.1232085 22.1796875 77.28515625 C26.40317175 68.2408111 27.13433844 61.8384509 23.6796875 52.28515625 C23.31617188 51.29515625 22.95265625 50.30515625 22.578125 49.28515625 C20.38203443 41.64658034 21.17373888 34.55723349 23.6796875 27.16015625 C23.89498145 25.04035803 23.89498145 25.04035803 23.6171875 23.09765625 C23.56433594 22.46730469 23.51148438 21.83695313 23.45703125 21.1875 C21.23333355 15.388007 15.46705078 12.67102945 10.2421875 10.03515625 C9.59958984 9.70128906 8.95699219 9.36742187 8.29492188 9.0234375 C7.02689904 8.36689776 5.75521391 7.7173766 4.47973633 7.07543945 C2.81667275 6.22981008 1.17657071 5.33942457 -0.4609375 4.4453125 C-6.46851737 1.74518439 -13.10809525 2.37363892 -19.1953125 4.66015625 C-23.89242171 7.08447068 -26.58172414 10.15661322 -28.3203125 15.16015625 C-28.4847925 17.09347032 -28.58501162 19.03294699 -28.6328125 20.97265625 C-28.8627053 27.49175924 -31.58004092 30.60951049 -35.56640625 35.55859375 C-37.8433112 38.93591824 -38.11444408 41.19990672 -37.734375 45.18359375 C-37.32274017 47.3477219 -37.32274017 47.3477219 -36.3203125 50.09765625 C-34.37262716 56.06244261 -35.07817052 62.1047141 -36.3203125 68.16015625 C-36.79587213 73.93172089 -36.65285086 78.21509933 -33.3203125 83.16015625 C-32.21594957 84.30542151 -31.08884245 85.42899656 -29.9453125 86.53515625 C-23.6790698 92.60310013 -20.9085232 98.23625637 -19.38671875 106.83984375 C-18.39709794 109.9210807 -17.2810493 111.97825226 -15.57421875 114.69140625 C-11.80730606 120.74729873 -9.28441639 127.15880562 -6.6953125 133.78515625 C-2.53625834 146.55752696 -2.53625834 146.55752696 5.0546875 157.09765625 C10.74684195 159.40162353 16.51720894 159.28917084 22.5546875 159.22265625 C23.7303125 159.21588867 23.7303125 159.21588867 24.9296875 159.20898438 C26.84638764 159.19729718 28.76304798 159.17936533 30.6796875 159.16015625 C30.6796875 160.15015625 30.6796875 161.14015625 30.6796875 162.16015625 C22.50089367 164.88642086 11.17123136 164.333473 3.44140625 160.5234375 C-0.9807792 157.10139156 -3.2723894 152.58950376 -5.5703125 147.59765625 C-5.86478271 146.95924805 -6.15925293 146.32083984 -6.46264648 145.66308594 C-9.34723704 139.30595318 -11.86402766 132.80736033 -14.39819336 126.3046875 C-16.57635975 120.79254955 -19.09994132 115.71087548 -22.1015625 110.59375 C-23.42396763 107.95317821 -24.01829817 105.5427136 -24.6328125 102.66015625 C-26.27302153 95.76337371 -30.68430599 91.31841652 -35.3203125 86.16015625 C-37.96598528 83.07817954 -39.22874887 81.51420228 -40.2578125 77.53515625 C-41.53144203 73.48950952 -42.70070079 73.06521505 -46.3203125 71.16015625 C-46.3203125 70.17015625 -46.3203125 69.18015625 -46.3203125 68.16015625 C-44.6703125 68.82015625 -43.0203125 69.48015625 -41.3203125 70.16015625 C-38.65088773 60.20370603 -38.65088773 60.20370603 -40.5703125 50.34765625 C-42.31260756 48.16978743 -43.99420968 46.68415465 -46.3203125 45.16015625 C-45.9903125 44.17015625 -45.6603125 43.18015625 -45.3203125 42.16015625 C-44.6603125 42.16015625 -44.0003125 42.16015625 -43.3203125 42.16015625 C-43.3203125 42.82015625 -43.3203125 43.48015625 -43.3203125 44.16015625 C-42.6603125 44.16015625 -42.0003125 44.16015625 -41.3203125 44.16015625 C-41.4853125 43.23203125 -41.6503125 42.30390625 -41.8203125 41.34765625 C-41.87903091 37.17026057 -39.95489886 35.13618493 -37.3828125 31.97265625 C-33.3292465 26.81163614 -32.65421563 23.32810461 -32.49609375 16.88671875 C-32.17367561 11.88565521 -30.2056953 8.86015622 -26.453125 5.4765625 C-18.75546521 -0.57989813 -9.67359101 -3.50138395 0 0 Z " fill="#D5D0B7" transform="translate(112.3203125,47.83984375)"/>
<path d="M0 0 C1.32 0 2.64 0 4 0 C6.76205121 4.7750017 6.34028939 9.3618978 6.3125 14.75 C6.31121094 15.77101807 6.30992187 16.79203613 6.30859375 17.84399414 C6.19984753 26.51038808 5.05188994 34.58480851 3 43 C4.46300982 42.06981474 5.92025579 41.13055973 7.375 40.1875 C8.18710938 39.66542969 8.99921875 39.14335938 9.8359375 38.60546875 C12.23350241 37.01562803 12.23350241 37.01562803 14 34 C14.99 34.33 15.98 34.66 17 35 C15.57876845 38.30163021 13.87676578 40.3170382 11.1875 42.6875 C10.52105469 43.28949219 9.85460937 43.89148438 9.16796875 44.51171875 C6.75216718 46.17013389 4.88196185 46.62277986 2 47 C1.78085938 48.18851563 1.56171875 49.37703125 1.3359375 50.6015625 C-1.12779747 63.59842677 -4.3599863 76.28548322 -8 89 C-8.99 89 -9.98 89 -11 89 C-9.7152838 81.40470593 -8.0607 73.96921871 -6.1875 66.5 C-1.48155035 47.16126021 3.17720694 28.0125179 2 8 C1.94054199 8.58040039 1.88108398 9.16080078 1.81982422 9.75878906 C-2.02129117 46.07607529 -12.1704204 80.58517555 -24 115 C-18.6870568 113.36252502 -18.6870568 113.36252502 -15.43359375 109.14453125 C-15.10488281 108.04496094 -14.77617187 106.94539063 -14.4375 105.8125 C-12.15533491 99.08533362 -9.1301889 94.52742099 -4.4609375 89.265625 C-0.32143606 84.29822327 1.49563262 79.26868245 3.17602539 73.10327148 C4.56391166 68.29336852 4.56391166 68.29336852 7.1484375 66.5546875 C7.75945312 66.37164062 8.37046875 66.18859375 9 66 C6.78828919 78.01620203 3.53565346 86.1007488 -4.62890625 95.078125 C-7.71005889 98.87499843 -9.32855114 102.73568474 -10.96484375 107.30859375 C-12.45614317 111.18597224 -14.04240256 114.20200214 -17.25 116.875 C-20.83926112 118.34333409 -23.26551623 117.80547689 -27 117 C-26.43088725 111.08415664 -25.19020129 105.84925066 -23.3125 100.22265625 C-22.77340042 98.55795472 -22.23433909 96.89324079 -21.6953125 95.22851562 C-20.84848678 92.64314591 -19.99876513 90.05875188 -19.14746094 87.47485352 C-18.32024427 84.95558097 -17.5035586 82.43306126 -16.6875 79.91015625 C-16.43331299 79.15050064 -16.17912598 78.39084503 -15.91723633 77.60816956 C-14.27876126 72.53058908 -12.95579976 67.3726232 -13 62 C-14.29665675 59.31016276 -14.29665675 59.31016276 -16.4375 57.4375 C-17.09621094 56.77621094 -17.75492188 56.11492187 -18.43359375 55.43359375 C-18.95050781 54.96050781 -19.46742188 54.48742187 -20 54 C-19.67 53.34 -19.34 52.68 -19 52 C-18.34 52 -17.68 52 -17 52 C-15.31267723 53.98260426 -13.64633943 55.9832342 -12 58 C-11.34 58.33 -10.68 58.66 -10 59 C-9.89816406 57.83597656 -9.79632813 56.67195313 -9.69140625 55.47265625 C-8.90352246 48.38170211 -7.36898356 41.42000453 -5.9375 34.4375 C-5.65263437 33.03327619 -5.36812634 31.62897979 -5.08398438 30.22460938 C-4.39344219 26.81555975 -3.69807102 23.40751693 -3 20 C-3.60585937 19.71898438 -4.21171875 19.43796875 -4.8359375 19.1484375 C-9.09847736 16.88636761 -12.18309392 13.45967857 -14 9 C-11 9 -11 9 -9.24609375 10.49609375 C-8.64925781 11.13675781 -8.05242187 11.77742188 -7.4375 12.4375 C-4.99710571 15.0896163 -4.99710571 15.0896163 -2 17 C-1.93941406 15.85660156 -1.87882812 14.71320313 -1.81640625 13.53515625 C-1.73201572 12.04425695 -1.64736698 10.55337225 -1.5625 9.0625 C-1.52318359 8.30775391 -1.48386719 7.55300781 -1.44335938 6.77539062 C-1.11328125 1.11328125 -1.11328125 1.11328125 0 0 Z " fill="#D4CFB6" transform="translate(159,87)"/>
<path d="M0 0 C2.09176917 0.73671734 4.15450173 1.52655129 6.21728516 2.34082031 C11.36101381 4.28132242 16.17618112 5.84468004 21.65478516 6.59082031 C27.69348759 7.45702763 31.8074508 8.632344 35.74853516 13.65722656 C41.27536072 21.77801035 41.27536072 21.77801035 40.59228516 27.09082031 C40.49044922 27.90808594 40.38861328 28.72535156 40.28369141 29.56738281 C40.19990234 30.19386719 40.11611328 30.82035156 40.02978516 31.46582031 C35.68459672 28.59858712 31.35555568 25.72968759 27.15478516 22.65332031 C21.72433797 18.85200729 16.48647358 18.57218887 10.02978516 19.46582031 C6.68135726 20.81700945 3.60975792 22.3857836 0.46337891 24.15332031 C-1.97021484 25.46582031 -1.97021484 25.46582031 -3.97021484 25.46582031 C-4.46521484 24.41394531 -4.96021484 23.36207031 -5.47021484 22.27832031 C-8.69665992 16.58594936 -14.29897301 14.26346416 -19.97021484 11.46582031 C-15.60051872 3.05010926 -10.25891245 -2.78147465 0 0 Z " fill="#050504" transform="translate(142.97021484375,43.5341796875)"/>
<path d="M0 0 C0.33 0 0.66 0 1 0 C1.03963867 0.86761963 1.07927734 1.73523926 1.12011719 2.62915039 C2.96952101 41.53560013 5.13488603 84.27434256 22 120 C21.01 120 20.02 120 19 120 C0.0497619 86.76508394 -7.69201789 37.63594465 0 0 Z " fill="#0B0B09" transform="translate(103,80)"/>
<path d="M0 0 C0.33 0.99 0.66 1.98 1 3 C0.34773438 3.15855469 -0.30453125 3.31710938 -0.9765625 3.48046875 C-7.37257718 5.18795939 -12.49272598 6.95242112 -16.14453125 12.84765625 C-17.14940503 15.37590033 -17.23300209 17.28642057 -17.1875 20 C-17.18105469 20.845625 -17.17460938 21.69125 -17.16796875 22.5625 C-17.01070967 24.84458529 -16.57130745 26.79448754 -16 29 C-15.49782429 33.96381378 -15.91965784 38.20392797 -17.5 42.9375 C-19.63199758 49.5069088 -20.2101866 55.19236708 -17.4375 61.625 C-15.73423465 64.23425756 -13.70912256 66.37526457 -11.5625 68.625 C-7.57934703 72.9485934 -6.00563073 77.70235021 -4.23828125 83.2421875 C-3.25704104 86.06704494 -3.25704104 86.06704494 -1.08984375 87.3125 C1.91683476 88.30161293 4.94392081 89.17720945 8 90 C8 90.66 8 91.32 8 92 C3.49793855 92.310487 0.87860856 92.40551164 -3.25 90.5 C-7.7372022 86.42072528 -9.48364896 81.61134509 -11.3125 75.9375 C-12.76401554 71.8395749 -15.23556986 69.56992658 -18.34765625 66.62890625 C-22.4386384 62.59595222 -23.19733503 58.81446674 -23.375 53.25 C-23.28969491 49.17542732 -22.78118904 45.83911155 -21.4375 42 C-19.44309129 36.1752082 -20.31623878 31.01399074 -21 25 C-21.84283693 13.5916001 -21.84283693 13.5916001 -18.4765625 8.56640625 C-13.41372022 3.19550743 -7.40269419 -0.20007282 0 0 Z " fill="#D6D1B8" transform="translate(78,63)"/>
<path d="M0 0 C0.33 0 0.66 0 1 0 C1 4.29 1 8.58 1 13 C1.66 13 2.32 13 3 13 C2.69140975 15.77132017 2.3782967 18.54199986 2.0625 21.3125 C1.93198242 22.49102539 1.93198242 22.49102539 1.79882812 23.69335938 C1.66831055 24.8293457 1.66831055 24.8293457 1.53515625 25.98828125 C1.456604 26.68477783 1.37805176 27.38127441 1.29711914 28.09887695 C1 30 1 30 0 33 C1.46300982 32.06981474 2.92025579 31.13055973 4.375 30.1875 C5.59316406 29.40439453 5.59316406 29.40439453 6.8359375 28.60546875 C9.23350241 27.01562803 9.23350241 27.01562803 11 24 C11.99 24.33 12.98 24.66 14 25 C12.57876845 28.30163021 10.87676578 30.3170382 8.1875 32.6875 C7.52105469 33.28949219 6.85460937 33.89148438 6.16796875 34.51171875 C3.75216718 36.17013389 1.88196185 36.62277986 -1 37 C-1.21914062 38.18851563 -1.43828125 39.37703125 -1.6640625 40.6015625 C-4.12779747 53.59842677 -7.3599863 66.28548322 -11 79 C-11.99 79 -12.98 79 -14 79 C-12.7152962 71.40477925 -11.0615464 63.96897292 -9.1875 56.5 C-4.65620899 37.95602422 -0.32277109 19.16086579 0 0 Z " fill="#D3CDB5" transform="translate(162,97)"/>
<path d="M0 0 C1.32 0.33 2.64 0.66 4 1 C4.33 12.88 4.66 24.76 5 37 C11.44650135 31.54883653 11.44650135 31.54883653 15.8125 25.125 C16.8253192 23.38675195 17.87517043 21.66795308 19 20 C19.66 20 20.32 20 21 20 C20.57691196 28.46176088 13.96279091 34.57928099 8 40 C7.34 40 6.68 40 6 40 C6 41.98 6 43.96 6 46 C5.34 46 4.68 46 4 46 C3.67 46.99 3.34 47.98 3 49 C2.15613219 43.7896418 1.80089199 38.71466724 1.68359375 33.44140625 C1.66281265 32.65225327 1.64203156 31.86310028 1.62062073 31.05003357 C1.55576695 28.55426891 1.49654195 26.05840822 1.4375 23.5625 C1.39425358 21.86001652 1.35063744 20.15754238 1.30664062 18.45507812 C1.20015237 14.30348127 1.09870853 10.15178882 1 6 C0.01 6 -0.98 6 -2 6 C-1.125 1.125 -1.125 1.125 0 0 Z " fill="#D6D0B7" transform="translate(103,72)"/>
<path d="M0 0 C0.99 0.33 1.98 0.66 3 1 C3.75251909 3.5032778 4.31485043 5.88149307 4.8125 8.4375 C7.62458859 21.46665873 11.46897698 33.99344265 17.8984375 45.71484375 C19 48 19 48 19 51 C13.94791932 49.09191803 12.79528691 45.41184482 10.58203125 40.75 C5.27699666 28.57904541 -0.91316952 13.39315293 0 0 Z " fill="#D6D0B7" transform="translate(104,152)"/>
<path d="M0 0 C1.32 0 2.64 0 4 0 C5.72206188 2.99126319 6.24179923 5.10685713 6.1953125 8.546875 C6.18564453 9.81337891 6.18564453 9.81337891 6.17578125 11.10546875 C6.15902344 11.97816406 6.14226562 12.85085937 6.125 13.75 C6.11597656 14.63816406 6.10695312 15.52632812 6.09765625 16.44140625 C6.07414577 18.62788058 6.04128499 20.81380094 6 23 C5.34 23 4.68 23 4 23 C3.90912109 21.62714844 3.90912109 21.62714844 3.81640625 20.2265625 C3.73261719 19.03804687 3.64882812 17.84953125 3.5625 16.625 C3.48128906 15.44164063 3.40007812 14.25828125 3.31640625 13.0390625 C3.18915064 10.08481099 3.18915064 10.08481099 2 8 C1.67 9.98 1.34 11.96 1 14 C0.01 14.33 -0.98 14.66 -2 15 C-1.85973717 12.68715544 -1.71264442 10.37472409 -1.5625 8.0625 C-1.48128906 6.77472656 -1.40007812 5.48695312 -1.31640625 4.16015625 C-1 1 -1 1 0 0 Z " fill="#DED8BE" transform="translate(159,87)"/>
<path d="M0 0 C0.33 0.99 0.66 1.98 1 3 C0.34773438 3.15855469 -0.30453125 3.31710938 -0.9765625 3.48046875 C-7.57300129 5.24146495 -12.34841822 7.08576023 -16.3125 12.9375 C-17.1976654 15.59299621 -17.62238732 18.23084033 -18 21 C-19.5625 19.375 -19.5625 19.375 -21 17 C-20.89575844 12.10064674 -19.42851537 9.42851537 -16 6 C-10.77373118 2.25942454 -6.56836116 -0.17752327 0 0 Z " fill="#CFCAB2" transform="translate(78,63)"/>
<path d="M0 0 C1.32 0.33 2.64 0.66 4 1 C4 11.56 4 22.12 4 33 C3.34 33 2.68 33 2 33 C1.67 24.09 1.34 15.18 1 6 C0.01 6 -0.98 6 -2 6 C-1.125 1.125 -1.125 1.125 0 0 Z " fill="#E3DDC3" transform="translate(103,72)"/>
<path d="M0 0 C0.33 0.99 0.66 1.98 1 3 C-4.83560028 10.33525175 -11.47017476 17.07654903 -21 19 C-21.33 18.01 -21.66 17.02 -22 16 C-21.3709375 15.72027344 -20.741875 15.44054687 -20.09375 15.15234375 C-12.03950163 11.3799473 -6.12859917 6.38395747 0 0 Z " fill="#DED9BF" transform="translate(189,153)"/>
<path d="M0 0 C7.78492303 0.16280257 14.57141829 1.33267356 21 6 C22.27734375 8.16796875 22.27734375 8.16796875 23 10 C20.13201118 9.59028731 18.19644187 9.12823289 15.75 7.53125 C12.51550744 5.73022574 9.84649712 5.29297437 6.1875 4.8125 C5.02605469 4.65394531 3.86460937 4.49539062 2.66796875 4.33203125 C1.78753906 4.22246094 0.90710938 4.11289062 0 4 C0 2.68 0 1.36 0 0 Z " fill="#D1CBB3" transform="translate(154,53)"/>
<path d="M0 0 C5.15495203 2.62801476 8.85920405 4.95569136 12 10 C12.63536733 14.26499449 12.36087637 17.91737088 11 22 C10.01 22 9.02 22 8 22 C8.05800781 21.26394531 8.11601562 20.52789062 8.17578125 19.76953125 C8.58024086 13.44931827 8.58024086 13.44931827 5.75 8 C4.8425 7.34 3.935 6.68 3 6 C2.236875 5.401875 1.47375 4.80375 0.6875 4.1875 C0.130625 3.795625 -0.42625 3.40375 -1 3 C-0.67 2.01 -0.34 1.02 0 0 Z " fill="#DBD6BC" transform="translate(175,79)"/>
<path d="M0 0 C0.33 0 0.66 0 1 0 C0.61375277 8.38156489 -1.5255343 16.01265489 -4 24 C-4.99 24 -5.98 24 -7 24 C-3.65509259 3.65509259 -3.65509259 3.65509259 0 0 Z " fill="#D3CEB5" transform="translate(155,152)"/>
<path d="M0 0 C2.1875 -0.375 2.1875 -0.375 5 0 C8.03960712 2.63432617 9.70777099 4.27346331 10.3828125 8.26171875 C10.47983502 12.45447763 10.07971837 15.30829109 8 19 C7.67 19 7.34 19 7 19 C6.95101562 18.16855469 6.90203125 17.33710937 6.8515625 16.48046875 C6.77679688 15.39378906 6.70203125 14.30710937 6.625 13.1875 C6.52058594 11.56908203 6.52058594 11.56908203 6.4140625 9.91796875 C6.18804267 6.81373814 6.18804267 6.81373814 4 4 C1.94074861 3.27617533 1.94074861 3.27617533 0 3 C0 2.01 0 1.02 0 0 Z " fill="#DCD6BD" transform="translate(197,91)"/>
<path d="M0 0 C0.33 0 0.66 0 1 0 C1 4.29 1 8.58 1 13 C1.66 13 2.32 13 3 13 C2.67 15.97 2.34 18.94 2 22 C1.01 22 0.02 22 -1 22 C-0.67 14.74 -0.34 7.48 0 0 Z " fill="#C0BBA5" transform="translate(162,97)"/>
<path d="M0 0 C0.33 0 0.66 0 1 0 C0.91266424 1.60517097 0.80447776 3.20921662 0.6875 4.8125 C0.62949219 5.70582031 0.57148438 6.59914062 0.51171875 7.51953125 C-0.06313581 10.30604 -0.8206856 11.24135754 -3 13 C-4.15019009 9.54942972 -3.80497206 8.69840756 -2.625 5.375 C-2.34914062 4.57835937 -2.07328125 3.78171875 -1.7890625 2.9609375 C-1 1 -1 1 0 0 Z " fill="#DAD4BB" transform="translate(155,152)"/>
<path d="M0 0 C0.66 0.33 1.32 0.66 2 1 C1 4 1 4 -1.875 5.75 C-5 7 -5 7 -8 6 C-8 5.34 -8 4.68 -8 4 C-6.71349294 3.30289269 -5.42059335 2.61757124 -4.125 1.9375 C-3.40570313 1.55464844 -2.68640625 1.17179688 -1.9453125 0.77734375 C-1.30335938 0.52082031 -0.66140625 0.26429688 0 0 Z " fill="#D0CBB3" transform="translate(175,165)"/>
<path d="M0 0 C0.66 0.33 1.32 0.66 2 1 C1.67 3.64 1.34 6.28 1 9 C0.01 8.34 -0.98 7.68 -2 7 C-2.3125 4.5 -2.3125 4.5 -2 2 C-1.34 1.34 -0.68 0.68 0 0 Z " fill="#CAC5AD" transform="translate(162,118)"/>
<path d="M0 0 C2.56687367 3.8503105 1.83288724 5.58569763 1 10 C-0.5625 8.875 -0.5625 8.875 -2 7 C-1.56521739 1.56521739 -1.56521739 1.56521739 0 0 Z " fill="#C9C4AC" transform="translate(75,106)"/>
<path d="M0 0 C0.66 0 1.32 0 2 0 C1.67 2.31 1.34 4.62 1 7 C0.01 7 -0.98 7 -2 7 C-1.125 1.125 -1.125 1.125 0 0 Z " fill="#D5CFB6" transform="translate(185,94)"/>
<path d="M0 0 C0.66 0.33 1.32 0.66 2 1 C-0.475 4.465 -0.475 4.465 -3 8 C-3.66 6.68 -4.32 5.36 -5 4 C-3.35 2.68 -1.7 1.36 0 0 Z " fill="#C8C2AB" transform="translate(126,47)"/>
<path d="M0 0 C-0.33 3.3 -0.66 6.6 -1 10 C-1.33 10 -1.66 10 -2 10 C-2.144375 9.2575 -2.28875 8.515 -2.4375 7.75 C-2.90187492 5.47972261 -3.41863569 3.24240521 -4 1 C-2 0 -2 0 0 0 Z " fill="#CCC6AF" transform="translate(138,80)"/>
<path d="M0 0 C1.32 0 2.64 0 4 0 C4 0.99 4 1.98 4 3 C2.02 3.33 0.04 3.66 -2 4 C-1.34 2.68 -0.68 1.36 0 0 Z " fill="#CAC5AD" transform="translate(139,207)"/>
<path d="M0 0 C0 0.66 0 1.32 0 2 C-0.66 2 -1.32 2 -2 2 C-2 3.98 -2 5.96 -2 8 C-3.5 6.75 -3.5 6.75 -5 5 C-5 3.68 -5 2.36 -5 1 C-3 0 -3 0 0 0 Z " fill="#CAC5AD" transform="translate(105,77)"/>
<path d="M0 0 C1.65 0 3.3 0 5 0 C5.33 0.99 5.66 1.98 6 3 C3.69 3 1.38 3 -1 3 C-0.67 2.01 -0.34 1.02 0 0 Z " fill="#C2BDA7" transform="translate(73,63)"/>
<path d="M0 0 C-0.33 1.98 -0.66 3.96 -1 6 C-1.99 5.67 -2.98 5.34 -4 5 C-4 3.68 -4 2.36 -4 1 C-2 0 -2 0 0 0 Z " fill="#CEC8B0" transform="translate(189,112)"/>
</svg>
