<svg width="96" height="96" viewBox="0 0 96 96" fill="none" xmlns="http://www.w3.org/2000/svg">
<g clip-path="url(#clip0_484_4216)">
<path d="M87.999 96H8.001C3.6 96 0 92.4 0 87.999V8.001C0 3.6 3.6 0 8.001 0H87.999C92.4 0 96 3.6 96 8.001V87.999C96 92.4 92.4 96 87.999 96Z" fill="#F0C066"/>
<path d="M78.4941 27.432C78.51 27.2434 78.5176 27.0542 78.5176 26.8654C78.5176 21.6701 74.2909 17.4434 69.0956 17.4434C68.9888 17.4434 68.8851 17.4475 68.6434 17.4581L26.2266 17.4551C26.104 17.4493 25.9796 17.4434 25.8505 17.4434C20.6634 17.4434 16.4437 21.6618 16.4437 26.8531L16.4568 27.6124H16.4355L16.4627 68.8654L16.4514 70.2786C16.4514 75.4115 20.6268 79.5869 25.7591 79.5869C25.8747 79.5869 26.2449 79.5704 26.2514 79.5704L68.4724 79.5763C68.6793 79.601 68.9034 79.6087 69.1345 79.6087C71.6178 79.6087 73.9544 78.6412 75.7131 76.8837C77.4723 75.1267 78.441 72.7937 78.441 70.311L78.431 69.478H78.4946L78.4941 27.432V27.432ZM25.9613 75.5387L25.7821 75.5246C22.8337 75.5246 20.5024 73.1074 20.4753 70.0257V36.0653H74.4568L74.4887 69.7061L74.4273 69.9047C74.3902 70.0321 74.3718 70.153 74.3718 70.2632C74.3718 73.0631 72.1839 75.3778 69.3899 75.5329L68.64 75.5759V75.5394L25.9613 75.5387ZM74.4561 32.0266H20.4794L20.4534 27.4551L20.5124 27.2523C20.5484 27.1261 20.5666 27.0006 20.5666 26.8885C20.5666 23.96 22.9744 21.5729 25.9872 21.5629L26.0184 21.5582L68.8803 21.5594L69.0649 21.5735C71.9998 21.5735 74.3876 23.9614 74.3876 26.8963C74.3876 26.9882 74.4012 27.0826 74.433 27.2105L74.456 27.2718V32.0266H74.4561Z" fill="white"/>
<path d="M60.3737 45.6875C59.8272 45.6875 59.3119 45.9009 58.9234 46.2895L43.4316 61.7818L36.0319 54.3826C35.6475 53.9941 35.134 53.78 34.5868 53.78C34.0396 53.78 33.5244 53.9935 33.1364 54.3808C32.7497 54.7634 32.535 55.2753 32.5332 55.8223C32.532 56.3706 32.7461 56.8871 33.1357 57.278L41.9795 66.1223C42.3657 66.5078 42.8816 66.7201 43.4316 66.7201C43.9811 66.7201 44.4969 66.508 44.8831 66.1218L61.8182 49.1867C62.205 48.8046 62.4196 48.2934 62.4214 47.7457C62.4226 47.195 62.2079 46.6773 61.8195 46.2906C61.4345 45.9015 60.921 45.6875 60.3738 45.6875H60.3737Z" fill="white"/>
</g>
<defs>
<clipPath id="clip0_484_4216">
<rect width="96" height="96" fill="white"/>
</clipPath>
</defs>
</svg>
